<svg width="1439" height="1247" viewBox="0 0 1439 1247" fill="none" xmlns="http://www.w3.org/2000/svg">
<path d="M1440 1247L0 1247L0 53.2292C0.47998 54.0267 1.43994 54.2262 2.27991 53.8274C3.12 53.4287 3.95996 52.2325 4.79993 52.4319C5.27991 52.6312 5.63989 53.2292 6.12 53.2292C6.71997 53.4286 7.31982 52.8306 8.03979 52.8306C9.47986 52.6312 10.7999 54.8242 12 54.0267C12.48 53.8274 12.7198 53.0299 13.2 52.8306C13.9199 52.4318 14.64 53.0299 15.36 53.4286C16.08 53.8273 17.0399 54.2262 17.5199 53.6281C17.9999 53.03 17.88 51.8337 18.6 51.4351C19.08 51.2356 19.5598 51.8339 19.9199 52.4319C20.8799 53.8274 22.9199 55.223 24.48 54.6249C25.7999 54.2262 26.8799 55.6216 27.6 56.8177C28.3199 58.0139 29.1599 59.6089 30.4799 59.6089C31.4399 59.6089 32.1599 58.8114 33.1199 58.6121C34.4399 58.2134 35.7599 59.2101 37.08 59.4094C38.3999 59.6088 40.0798 58.0139 39.2399 56.8177C40.6799 56.8177 41.9999 57.8147 42.7198 59.2102C42.9598 58.6121 43.08 57.8146 43.3199 57.2166C43.5599 58.0139 44.64 57.4159 45 56.6184C46.3199 54.4255 47.5198 52.2325 48.8398 49.8402C49.9198 52.4319 51.24 54.8241 52.7999 57.0171C53.2799 57.8146 53.8799 58.4126 54.72 58.8114C56.6399 59.6088 58.6799 57.8146 59.8799 55.821C61.08 53.8274 62.3998 51.6344 64.4398 51.4351C65.9998 51.2356 67.5598 52.2325 68.5199 53.6281C69.4799 55.0236 69.9598 56.6184 70.4398 58.4126C70.6798 58.0139 71.0399 57.6152 71.3999 57.4159C72.12 58.2133 72.8401 59.2101 73.5601 60.0074C74.16 58.4126 76.5599 58.6121 77.0399 60.2069C77.1599 59.8082 77.5199 59.4095 77.9999 59.2102C78.5999 60.0077 79.08 61.0044 79.6801 61.8019C79.92 60.6057 81.12 59.8081 82.2 59.4094C83.4 59.2101 84.48 59.2101 85.6799 59.0107C87.36 58.6121 88.9199 57.6152 90.6 57.2166C92.2799 56.8177 94.4399 57.4159 95.0399 59.0107C95.8799 57.2166 98.1599 56.4191 99.72 57.4159C100.56 57.8146 101.4 58.8113 102.12 58.0139C102.48 57.8146 102.6 57.2166 102.84 56.8177C104.04 55.2229 106.56 58.4126 108 57.0171C108.96 56.2196 108.6 54.4255 109.56 53.8274C110.88 53.03 112.56 55.4221 113.76 54.4254C114.48 53.8273 114.36 52.2324 115.2 51.8337C116.04 51.6344 116.64 52.4319 117.12 53.2292C118.68 55.6216 122.16 57.6152 124.44 56.4191C125.76 56.8177 127.32 56.4191 128.4 55.4222C128.88 55.0236 129.36 54.4254 129.84 54.0267C131.28 53.0299 133.2 54.0267 134.76 55.0236C135.36 54.0267 136.68 53.8273 137.64 54.4254C138.6 54.8241 139.32 55.8209 140.04 56.8177C139.8 54.2261 142.2 52.2325 144.36 50.837C146.52 49.4415 148.68 48.2454 150.84 46.8499C149.4 49.8402 148.2 53.0299 147.24 56.2197C150.6 55.4222 154.08 55.4221 157.44 56.0203C157.56 54.8241 157.8 53.6281 157.92 52.2325C159 52.4319 159.96 52.8304 160.92 53.4286C160.92 51.8337 160.92 50.4382 161.16 48.8434C162 49.0427 162.96 49.2421 163.92 49.4414C163.8 48.8434 163.92 48.2452 164.16 47.8464C164.64 48.0459 165.12 48.4447 165.6 48.644C165.72 47.0492 167.16 46.0522 168.48 46.0522C169.8 46.0522 171.12 46.8497 172.32 47.4479C171.72 45.4542 171.48 43.4607 171.48 41.2677C171.48 40.4702 171.48 39.6727 171.96 39.0747C172.56 38.2772 173.4 38.2772 174.24 38.2772C176.28 38.0779 178.44 38.0779 180.48 37.8785C181.92 37.8785 183.6 37.4797 184.08 36.0842C184.32 35.2867 184.44 34.0907 185.16 34.0907C185.4 34.0907 185.76 34.29 186 34.29C187.2 35.0875 188.28 35.8849 189.24 37.0811C190.8 36.0842 192.36 35.4862 193.8 34.29C194.04 32.4958 196.44 32.6952 198 33.4926C199.44 34.29 201.6 35.0875 202.44 33.4926C202.68 32.8945 202.8 32.0972 203.4 31.8977C203.76 31.8977 204.12 32.0972 204.36 32.2965C205.2 33.094 206.04 33.8914 206.88 34.6888C208.08 33.692 209.88 33.692 211.08 34.6888C211.32 33.8914 211.44 33.094 211.68 32.2965C212.16 33.094 213.24 33.2932 213.96 32.8944C215.04 34.4894 217.2 34.6887 219 34.4894C224.04 34.29 229.44 34.0907 233.28 30.5022C233.76 30.1035 234.36 29.5054 234.96 29.7047C235.44 29.9042 235.68 30.3029 235.92 30.901C237.84 35.2869 240.24 40.2709 244.56 41.2677C244.2 39.8722 244.32 38.2772 244.8 36.8817C246.12 38.4766 247.44 39.8721 248.76 41.467C249.24 40.6696 249.72 40.0715 250.2 39.2742C250.92 39.8722 251.76 40.6696 252.48 41.2677C253.44 39.6729 255.48 40.0715 257.28 40.2709C259.92 40.4702 262.56 39.4735 264.48 37.4799C264.6 39.6729 265.32 41.6664 266.28 43.4606C267.84 41.0682 271.08 40.2709 273.36 41.8657C274.08 42.2645 274.68 43.0619 275.52 43.2612C278.52 44.4574 281.28 40.6696 284.52 40.0715C286.08 39.6727 287.76 40.2709 289.44 40.0715C291 39.8721 292.68 37.8785 291.96 36.2837C295.08 37.0811 298.68 38.4766 299.4 41.8657C299.76 40.8689 300.12 39.8722 300.36 38.8754C301.2 39.0747 301.92 39.6727 302.4 40.4702C302.88 39.0747 304.68 39.0747 305.64 40.0715C306.6 41.0682 307.08 42.4639 307.92 43.66C308.64 44.8562 310.08 45.8529 311.28 45.0554C312.6 44.2581 312.84 41.8658 314.28 41.6664C316.08 41.467 317.52 44.8562 318.96 43.66C319.44 43.2612 319.44 42.2645 319.92 41.6664C320.88 40.2709 323.04 41.6664 323.64 43.4606C324.24 45.2549 324.36 47.4479 325.92 48.2454C327.12 48.8434 328.44 48.4447 329.76 48.2454C331.08 48.2454 333.36 49.4415 333.12 50.837C334.08 51.4352 335.16 51.8337 336.24 51.4351C337.32 51.0363 337.92 49.4414 337.32 48.4446C342.12 46.6504 347.4 45.8529 352.56 46.2516C354.24 46.451 356.16 46.6504 357.48 45.4542C358.2 44.8562 358.68 43.8594 359.52 43.66C361.32 43.2612 362.16 46.0524 363.6 47.4479C365.52 49.0427 368.4 47.4478 370.44 46.0522C375.6 42.2644 381.24 39.4735 387.24 37.6793C387.36 35.287 387.48 32.8947 387.6 30.7017C388.8 30.901 389.88 31.499 390.72 32.2965C390.6 31.6984 390.48 31.1002 390.36 30.3029C390.84 30.7015 391.44 30.7015 391.92 30.5022C392.16 28.3093 392.28 26.3156 392.52 24.1226C394.68 26.7142 396.96 29.306 399.24 31.8977C399.72 32.4958 400.2 32.8945 400.92 33.2933C402.72 33.8914 404.52 32.097 406.44 32.4958C408 32.8945 408.96 34.4894 409.56 36.0842C410.04 37.6791 410.4 39.4734 411.36 40.869C412.56 42.4639 414.6 43.0619 416.4 43.66C423.12 45.6536 429.72 47.4479 436.44 49.4414C436.8 49.6407 437.28 49.641 437.64 49.641C438.72 49.4415 439.32 47.8464 440.4 47.8464C441.48 48.0459 441.6 49.8402 442.44 50.6376C444 52.6312 447.36 50.4382 449.16 51.8337C451.2 51.8337 453 53.4287 453.84 55.4222C454.2 54.4254 455.52 54.2261 456.24 54.8241C456.72 54.0266 457.32 53.2294 457.8 52.4319C457.32 54.0267 459 56.0204 460.56 55.4222C461.52 55.0236 462.12 54.0266 463.08 53.4286C464.76 52.4318 466.92 53.8274 467.76 55.6217C468.6 57.6152 468.48 59.8082 468.36 61.8019C470.28 63.5961 473.4 61.4031 475.92 62.2006C477.36 62.5992 478.56 63.9948 480 64.3934C481.32 64.7922 482.64 64.1941 484.08 63.7954C485.4 63.5961 487.08 63.5961 487.8 64.7922C489 66.7858 487.68 70.3743 489.72 71.1718C490.08 71.3711 490.56 71.3711 491.04 71.3711C492.12 71.7698 492.72 73.1654 492.48 74.5609C492.24 75.7571 491.52 76.9531 490.92 77.9498C492.24 78.9467 494.28 78.5481 495.12 76.9531C495.96 75.3583 495.6 72.9659 497.04 72.1686C498 71.5704 499.32 72.1686 500.16 71.3711C500.76 70.7729 500.88 69.9756 501 68.9788C501.12 66.7858 501.36 64.7922 501.48 62.5992C502.8 64.9916 504.6 66.9851 506.76 68.3806C507.72 67.3838 507.12 64.9916 508.44 64.7922C509.04 64.5929 509.64 65.3903 510.24 65.5897C511.44 66.1877 512.76 65.1909 513.72 64.1941C514.56 63.1974 515.76 62.2006 516.96 61.8019C518.64 62.3999 520.56 62.0012 522 60.8051C522.72 60.2069 523.44 59.4095 524.28 59.2102C525.72 58.8115 527.28 60.4064 527.04 62.2006C529.2 62.0012 531.12 63.7954 532.44 65.7889C533.76 67.7826 534.96 69.9756 537 70.7731C539.04 71.7698 542.04 70.3743 541.8 67.9819C542.04 69.1781 543.72 68.9788 544.44 68.1813C545.28 67.3839 545.76 66.1877 546.72 65.5897C547.8 64.9916 549.12 65.1909 550.08 65.9883C551.04 66.7858 551.76 67.9821 552.36 69.1782C555 67.5833 558.12 66.3871 561 67.3839C562.68 67.7826 564.96 68.9788 566.04 67.3839C566.76 66.3871 566.52 64.5928 567.6 63.9948C568.2 63.5959 569.04 63.9948 569.64 64.1941C571.56 64.7922 573.6 64.7922 575.4 63.7954C575.28 65.7891 574.68 67.7826 573.96 69.7761C576.84 71.5704 580.56 71.9692 583.68 70.5737C584.4 70.175 585.36 69.7762 585.96 70.3743C586.8 70.9724 586.68 72.3679 587.28 73.1653C587.64 73.5641 588.12 73.5641 588.6 73.7634C590.16 74.1621 591.72 74.5608 593.4 74.7601C594.6 74.9596 595.68 75.3583 596.88 74.9595C598.44 74.5608 600.36 73.3646 601.44 74.7601C601.2 74.3615 601.56 73.7634 602.04 73.7634C602.52 73.7634 603 73.9629 603.36 74.1622C604.2 74.7603 605.04 75.1589 605.88 75.7571C605.64 73.9628 607.92 72.7666 609 73.9628C608.76 72.7666 610.32 71.9691 611.28 72.3679C612.36 72.7666 613.08 73.7634 614.04 74.3616C615.48 75.1589 617.28 74.5609 618.6 73.5641C619.92 72.5673 620.64 70.7731 621.24 69.1782C621.48 68.3807 621.72 67.5834 622.44 67.1846C624 66.3872 626.16 70.1749 627.84 69.7761C629.16 69.5768 630.6 69.1781 631.92 68.9788C631.08 66.9851 631.8 64.194 633.36 62.9978C634.08 62.3998 635.04 62.0011 635.4 61.0043C635.88 59.6088 634.44 57.8146 635.16 56.6184C636.48 56.4191 637.92 56.6184 639.12 57.4159C639.84 57.8146 640.44 58.4127 641.28 58.6121C642 58.8114 642.6 58.6119 643.32 58.4126C646.32 57.4158 649.32 56.4191 651.72 54.2262C653.28 52.6312 654.84 50.4384 657 50.837C658.2 51.0364 659.28 52.2325 660.48 52.6313C661.68 53.03 663.12 52.8307 664.32 52.6313C666.6 52.0332 669 51.6344 671.28 51.0363C673.68 50.4382 676.2 49.8401 677.88 48.0459C678.24 47.6472 678.6 47.2485 678.96 46.8499C680.28 46.0524 681.84 47.0491 683.16 47.8464C684.48 48.6439 686.52 49.0428 687.24 47.6472C687.48 47.2485 687.48 46.8497 687.72 46.4509C688.44 45.2548 690 45.8529 691.08 46.4509C691.08 45.6536 691.2 44.8562 691.56 44.2582C693 43.4607 693.96 46.451 695.52 46.6504C696.6 46.8497 697.32 45.6536 698.16 45.0554C700.08 43.2612 702.84 43.062 705 44.2582C704.76 42.4639 704.88 40.8689 705.24 39.0747C707.04 39.4734 708.24 42.6632 710.04 41.8657C711.96 41.0684 711 37.6791 712.44 36.0842C713.28 35.0874 714.84 35.2869 715.68 36.2837C716.52 37.2804 716.76 38.676 716.52 39.8722C717.6 39.4734 718.56 38.8754 719.64 39.0747C720.72 39.274 721.68 40.4702 721.44 41.6664C721.08 42.8625 719.64 44.2581 720.48 45.0554C720.84 45.4541 721.32 45.2549 721.8 45.2549C723 44.8561 724.2 44.0587 725.04 43.0619C725.28 44.4574 726.36 45.6536 727.68 46.0522C729 46.2516 730.2 45.8529 730.8 44.4574C729.84 44.0587 730.08 42.2645 731.04 41.6664C732 41.0684 733.08 41.467 734.04 41.8657C734.16 41.2677 734.4 40.6696 734.52 39.8722C735.96 39.8722 737.28 39.6727 738.72 39.6727C738.72 38.8754 738.84 38.078 738.84 37.2805C740.4 38.2773 741.84 39.0747 743.4 40.0715C744 38.4766 744.6 37.0812 745.56 35.885C746.64 34.6888 748.08 33.8914 749.52 34.29C751.08 34.6888 752.64 36.483 754.08 35.4862C755.04 34.8881 755.04 33.094 756 32.2965C756.84 31.499 758.04 31.8978 758.88 32.6952C759.72 33.4927 760.32 34.4894 761.04 35.2869C762.72 36.8817 765.36 37.4799 767.28 36.2837C766.08 35.4862 766.92 33.2933 768.24 32.6952C770.04 31.6984 772.2 31.499 774 32.4958C774.72 32.8945 775.44 33.4926 776.16 33.4926C777.6 33.692 779.04 32.6951 780.12 31.4989C780.36 32.6951 780.96 33.8912 781.68 35.0874C782.88 34.29 784.08 33.4927 785.28 32.6952C786.12 36.8818 790.8 39.2742 794.28 37.6793C795.84 36.8818 797.52 38.078 798.96 39.2742C801.6 41.2677 804.12 43.4607 806.76 45.6537C807.96 46.6505 809.28 47.6472 810.72 48.0459C812.16 48.4446 813.96 48.2454 814.92 46.8499C815.76 45.853 816.12 44.4575 817.2 44.0587C818.04 43.66 819 44.2581 819.72 45.0554C821.4 46.6503 822.72 48.4447 823.56 50.6376C824.76 49.8402 825.96 49.2421 827.04 48.4446C827.52 48.2452 828 47.8466 828.48 48.0459C829.8 48.4446 829.32 51.2357 830.76 51.6344C831.6 49.8402 833.88 49.6407 835.68 49.8402C838.56 50.0396 841.32 50.4382 844.2 50.6376C844.56 48.2454 844.68 45.853 844.68 43.66C846.48 44.8562 847.92 46.451 849.12 48.2454C851.64 47.4479 853.44 45.0555 855.6 43.2612C857.76 41.6664 861.12 40.8689 862.8 43.2612C862.8 42.4639 862.92 41.6664 862.92 40.869C865.32 42.4639 868.68 43.66 870.6 41.467C871.32 40.6696 871.68 39.274 872.64 39.0747C873.84 38.676 875.16 40.0715 876.12 39.0747C876.48 38.676 876.72 38.078 876.96 37.6793C877.68 36.6825 879.24 36.8818 880.32 37.2805C881.52 37.8787 882.6 38.6759 883.8 38.2772C884.76 38.0779 885.48 37.0811 886.44 36.8817C888 36.483 889.32 37.8785 890.64 38.8754C893.52 41.0684 897.24 41.2677 900.6 41.467C902.64 41.6664 904.92 41.6664 906.84 40.869C908.28 40.2709 909.48 38.8752 911.04 38.4766C912.6 38.0779 914.16 39.8721 915.24 41.0682C916.68 42.8624 919.44 41.6664 921.24 40.2709C923.04 38.8754 925.56 37.2805 927.36 38.8754C927.48 37.4799 927.72 35.8849 927.84 34.4894C929.64 34.8881 931.56 34.0907 932.76 32.4958C932.4 34.8882 934.68 36.8817 936.72 36.8817C938.88 36.8817 940.68 35.0875 942 33.2933C942.72 34.6888 942.96 36.4829 942.72 38.0778C944.04 38.2772 945.36 37.8785 946.32 36.8817C947.16 37.8785 947.76 39.2742 947.88 40.6697C949.92 40.869 951.72 38.4766 951.36 36.2837C951.96 36.6824 952.56 37.0811 953.28 37.0811C954 36.8817 954.36 35.8849 953.76 35.4862C957.36 38.8754 962.76 36.0844 967.44 35.6855C971.88 35.4862 976.32 37.4797 980.64 36.483C982.32 36.0842 983.88 35.2869 985.56 34.8882C987.96 34.4894 990.48 35.287 992.28 37.2805C993.84 38.8754 995.64 41.467 997.44 40.2709C996.48 38.2773 996.6 35.6855 997.68 33.8914C998.88 32.097 1001.04 31.1002 1002.96 31.4989C1001.88 29.7047 1001.16 27.7112 1000.68 25.5182C1004.04 24.5214 1006.2 30.3029 1009.68 30.5022C1011.48 30.7015 1013.76 29.5054 1014.6 31.2996C1014.96 32.097 1014.72 32.8945 1015.08 33.692C1015.68 35.0875 1017.6 35.0874 1018.56 34.0907C1019.64 33.0939 1020 31.4989 1020.36 30.1034C1022.76 35.2867 1025.64 40.2709 1029.12 44.6567C1031.4 43.66 1034.16 44.4574 1035.72 46.6504C1036.2 47.2484 1036.56 48.2454 1037.28 48.644C1038 49.0427 1038.72 49.0427 1039.56 49.0427C1042.56 49.0427 1045.56 49.0427 1048.56 49.0427C1048.08 47.6472 1047.72 45.8529 1048.68 45.0554C1049.28 44.4574 1050.12 44.6567 1050.84 44.6567C1056.36 45.0555 1061.88 45.8529 1067.4 47.0491C1068.6 47.2484 1070.04 47.6472 1070.88 48.644C1072.44 47.4479 1073.88 46.451 1075.56 45.4542C1076.88 44.8562 1078.32 44.0587 1079.64 43.4606C1080 43.2612 1080.48 43.0619 1080.84 43.2612C1081.44 43.4607 1081.92 44.0587 1082.16 44.8561C1083.12 47.0491 1084.92 49.6407 1087.2 49.0427C1087.92 48.8434 1088.64 48.4447 1089.36 48.2454C1091.28 48.0459 1092.36 50.4382 1093.08 52.4319C1096.08 52.2325 1099.08 52.4319 1101.96 52.6313C1101.84 55.821 1102.2 59.2102 1103.04 62.2006C1105.08 62.2006 1107 60.6056 1107.48 58.2133C1107.72 57.0171 1107.6 55.821 1107.96 54.6249C1108.32 53.4287 1109.52 52.4318 1110.48 53.0299C1110 51.4349 1110 49.8402 1110.36 48.2454C1111.44 49.8402 1113 51.0364 1114.8 51.2358C1114.8 48.644 1115.28 45.255 1117.44 44.2582C1118.88 43.66 1120.32 44.2582 1121.88 44.2582C1123.32 44.2582 1125.12 43.4607 1125 41.6664C1126.68 41.6664 1127.28 44.4574 1128.96 44.6567C1129.56 44.6567 1130.04 44.4575 1130.64 44.2582C1132.68 43.2614 1134.72 42.2645 1136.76 41.2677C1137 43.0619 1138.44 44.4574 1140 45.0554C1141.56 45.6536 1143.36 45.4542 1145.04 45.2549C1147.08 44.8561 1149.24 44.4574 1150.8 42.8625C1151.04 44.8562 1153.8 45.0555 1155.12 43.8594C1156.08 42.8625 1157.16 41.2677 1158.36 41.8657C1159.08 42.2645 1159.32 43.2612 1160.04 43.66C1161.12 44.2581 1162.32 42.8625 1163.04 41.8657C1164.12 40.0715 1165.2 38.8754 1166.28 36.8817C1166.04 36.6824 1166.28 36.2837 1166.52 36.2837C1166.76 36.2837 1167 36.2836 1167.24 36.483C1167.96 36.483 1168.32 35.6855 1168.44 34.8882C1168.56 34.0907 1168.68 33.2932 1169.16 32.8944C1170.24 33.0939 1170.72 35.0875 1171.8 34.6888C1172.16 34.4895 1172.28 34.29 1172.52 33.8914C1173.12 32.8945 1173.6 32.097 1174.2 31.1002C1174.56 30.7014 1175.04 30.1034 1175.52 30.1034C1175.88 30.3027 1176 30.5022 1176.24 30.901C1176.72 31.8978 1177.08 32.6952 1177.56 33.692C1177.68 33.8914 1177.68 34.0907 1177.92 34.0907C1178.04 34.0907 1178.16 34.0907 1178.28 34.0907C1179.36 33.4926 1179.48 32.097 1180.2 31.1002C1181.4 29.5054 1184.04 29.306 1184.4 27.113C1185.12 28.1099 1185.84 29.306 1186.56 30.3029C1186.92 29.5054 1187.28 28.7081 1187.52 27.7113C1188.24 29.3062 1188.96 30.901 1189.8 32.2965C1190.16 31.6984 1190.64 31.1003 1191.12 30.7017C1191.48 31.8978 1191.36 33.2932 1190.76 34.4894C1192.08 34.4894 1193.28 34.4895 1194.6 34.6888C1194.48 35.0875 1194.12 35.2869 1193.88 35.2869C1193.88 35.4862 1194.24 35.4862 1194.48 35.4862C1194.72 35.4862 1195.08 35.2869 1195.2 35.4862C1195.32 35.6855 1195.2 35.6855 1195.08 35.6855C1196.76 36.483 1198.56 36.6824 1200.36 36.0842C1200.36 37.2804 1201.08 38.2772 1202.04 39.0747C1203 39.6727 1204.08 39.8721 1205.16 40.0715C1206.24 40.2709 1207.32 40.4703 1208.4 40.6697C1208.76 40.6697 1209 40.8688 1209.24 41.0682C1209.48 41.2676 1209.6 41.467 1209.84 41.467C1210.44 41.6664 1210.92 40.4703 1211.52 40.6697C1211.76 40.6697 1211.88 41.0684 1212.12 41.2677C1212.72 41.467 1213.2 40.2709 1213.8 40.2709C1214.4 40.4702 1214.4 41.6664 1215 41.6664C1215.24 41.6664 1215.48 41.467 1215.72 41.2677C1216.44 40.4702 1217.16 39.274 1218.12 38.8754C1219.08 38.4767 1219.92 37.8787 1220.88 37.6793C1221.84 37.4799 1222.8 37.4799 1223.76 37.4799C1231.44 37.4799 1238.88 33.8915 1244.16 27.7113C1249.08 26.5151 1253.76 24.322 1257.96 21.3317C1258.32 20.3348 1258.68 19.338 1259.04 18.1418C1259.76 18.1418 1260.48 18.1418 1261.2 18.1418C1262.16 15.7495 1264.56 14.5535 1266.24 12.7593C1267.92 10.965 1268.16 6.77832 1265.88 6.37964C1270.08 4.78467 1273.92 2.79102 1277.52 0C1277.88 1.99365 1278.24 3.78784 1278.6 5.58215C1282.8 5.78149 1286.88 8.17383 1289.52 11.9617C1291.92 10.9648 1294.2 10.1674 1296.6 9.17053C1296.24 12.5597 1300.44 14.952 1302.84 12.9585C1303.56 12.3604 1304.04 11.3635 1304.88 11.1642C1306.44 10.7655 1307.4 12.7592 1308.12 14.3541C1309.92 17.7432 1313.64 19.5374 1317.12 18.5405C1316.4 20.3348 1315.56 22.1292 1314.84 23.9233C1318.68 21.531 1322.64 27.113 1326.84 27.9105C1330.2 28.5085 1333.8 25.3188 1334.04 21.5309C1335.36 22.9265 1336.8 24.1227 1338.12 25.5182C1338.96 24.1227 1339.8 22.9265 1340.52 21.7303C1341.24 22.5278 1341.96 23.1259 1342.68 23.9233C1344 21.7303 1347.48 21.9298 1348.56 24.322C1349.16 25.7177 1349.04 27.3124 1350.12 28.3092C1350.72 28.9073 1351.68 29.1068 1352.52 29.3062C1355.88 30.1035 1358.88 32.4958 1360.44 35.885C1361.4 34.8882 1362.48 34.0907 1363.44 33.0939C1364.64 36.2837 1368.6 36.6824 1371.72 36.483C1374.84 36.2836 1378.92 36.8818 1379.76 40.2709C1385.52 38.2773 1392.12 39.6729 1396.68 44.0587C1400.88 38.676 1410.6 44.8562 1414.68 39.2742C1415.52 39.8722 1416.36 40.2709 1417.2 40.869C1421.04 41.6664 1425.24 39.8722 1427.64 36.2837C1431.72 37.2804 1435.8 38.0779 1439.88 39.0747L1439.88 1247H1440Z" fill="#2D2928"/>
</svg>
